<svg width="59.984" height="57.356" viewBox="0 0 15.871 15.176" xmlns:xlink="http://www.w3.org/1999/xlink" xmlns="http://www.w3.org/2000/svg"><defs><linearGradient xlink:href="#a" id="b" gradientUnits="userSpaceOnUse" x1="500.875" y1="132.25" x2="501.125" y2="170.625"/><linearGradient id="a"><stop style="stop-color:#e89856;stop-opacity:1" offset="0"/><stop style="stop-color:#f0b87b;stop-opacity:1" offset="1"/></linearGradient></defs><g style="display:inline"><g style="display:inline;opacity:1"><path style="opacity:1;fill:url(#b);fill-opacity:1;stroke:#000;stroke-width:1.35958;stroke-linecap:butt;stroke-linejoin:miter;stroke-miterlimit:4;stroke-dasharray:none;stroke-opacity:1" d="M469.057 92.72c-3.925.53-4.784 3.697-5.104 5.227a50.108 50.108 0 0 0-.876 10.288c.034 1.984 1.078 6.205 3.943 7.345-.785.506-1.602.35-2.356-.36.3 1.34 1.61 2.37 3.219 2.47-.655.355-1.386.3-2.11.287.35.227.673.478 1.065.667.319.153.682.266 1.14.292-.238.784-.821.651-1.341.67.238.73.88 1.282 1.437 1.917-2.315.583-4.453 1.336-4.968 3.64 0 0 1.55-.74 3.077-.404-2.082 1.091-2.478 2.368-3.099 2.765-.621.397-2.401 1.697-4.402 1.474.887 2.398 3.107.97 5.322 1.175-4.032 1.858-5.57 7.095-4.36 12.172.934-2.935 2.97-4.67 3.83-4.722-2.605 1.798-4.525 6.345-2.492 11.98.726-2.208 1.407-4.566 2.875-5.367-1.427 2.498-1.58 3.87-1.341 6.135.688-1.72 1.116-3.933 2.202-4.61-1.211 3.772-1.549 8.978 4.985 13.14-.12-1.747-.065-3.156.576-4.122-.042 2.837-.239 5.715 1.342 7.858-.29-4.256.23-3.832.383-5.559.019 3.5 1.682 8.346 6.037 9.297l-.574-3.738c1.313 1.592 2.493 3.508 4.408 3.642-.097-1.016-.436-1.605-.768-2.205.923.594 1.917 1.08 2.493 2.205.274-.694.711-1.066 1.341-1.054 1.544.149 2.885.997 4.122 2.205.426 1.357.819 2.73 2.013 3.738.134-.822.004-1.57-.193-2.3.68 1.126.947 2.426 2.11 3.353-.042-1.888 0-.766 0-1.149 0 0 5.254 2.749 8.865 2.52 3.611-.229 5.674-1.097 6.755-2.424.346.398.1.824 0 1.244.773-.754 1.592-1.414 1.918-3.066.32.353.191 1.039.192 1.629.64-.678 1.302-1.544 2.107-3.641.944-.322 2.032-.83 3.643-2.014 1.128.093 1.38.599 1.533 1.15.707-.206 1.46-.714 2.3-1.82-.033.66-.201 1.326-.767 2.012 1.482-.583 2.94-.291 4.504-3.736.03 1.227-.344 2.587-.957 4.025 2.55-1.491 8.102-3.25 6.516-9.584.566 1.385.54 3.026.671 4.6.783-1.766 1.284-3.88 1.055-6.9.743 1.511.962 2.9.861 4.216 1.756-2.31 7.385-4.285 5.176-12.746.902.903 1.244 2.503 1.725 3.93-.156-1.862-.152-3.635-.766-5.752l2.108 4.728c1.098-4.723 1.49-8.232-2.588-11.724 1.728 1.17 3.48 2.305 4.312 4.793-1.321-3.984 2.464-7.374-4.217-11.98 1.673-.276 4.188 1.054 4.698-1.438-.285.413-4.224-1.428-4.698-1.725-.473-.297-1.548-1.514-2.298-2.3.798-.29 1.907 0 3.066.384-.463-1.143-1.38-1.93-2.588-2.492.51-.202 1.206-.065 1.438-.768-.657-.346-.6-.911-.67-1.437.884-.214 1.763.322 2.659-1.736-.563 0-1.187.074-1.573-.142 3.326-3.117 4.988-7.923 5.047-11.442.73-1.719.358-9.612-5.876-13.32-3.62 3.407-9.848 8.85-13.496 7.618-9.106-3.076-14.66-4.583-21.604-4.037-7.08-.878-13.611.546-19.69 2.838-3.636.062-9.67-4.828-13.297-7.815z" transform="matrix(.18388 0 0 .18388 -84.155 -16.918)"/><path style="opacity:1;fill:#000;fill-opacity:1;stroke:none;stroke-width:.065;stroke-linecap:butt;stroke-linejoin:miter;stroke-miterlimit:4;stroke-dasharray:none;stroke-opacity:1" d="M130.416 39.366c.153-.264.369-.413.582-.565.308.021.938.19 1.164.365l.578.018c.216-.135.92-.41 1.033-.452.291.166.557.372.703.766 0 0-.714-.063-.953.062-.282.149-.37.36-.342.707-.195.251-.425.465-.735.595a2.456 2.456 0 0 1-.72-.588c.089-.342-.055-.622-.278-.737-.253-.13-.66-.14-1.032-.171z" transform="matrix(.69498 0 0 .69498 -84.155 -16.918)"/><path style="opacity:1;fill:#000;fill-opacity:1;stroke:#000;stroke-width:.065;stroke-linecap:butt;stroke-linejoin:miter;stroke-miterlimit:4;stroke-dasharray:none;stroke-opacity:1" d="M126.399 33.863c.047 1.084 1.657 1.138 2.86 1.314.257.037.391-.095.353-.209-.063-.183-.317-.209-.492-.222-2.17-.162-2.38-.52-2.721-.883z" transform="matrix(.69498 0 0 .69498 -84.155 -16.918)"/><path style="opacity:1;fill:#000;fill-opacity:1;stroke:#000;stroke-width:.0649999;stroke-linecap:butt;stroke-linejoin:miter;stroke-miterlimit:4;stroke-dasharray:none;stroke-opacity:1" d="M138.597 33.843c-.047 1.084-1.657 1.138-2.86 1.314-.257.037-.391-.095-.353-.21.062-.182.317-.208.492-.22 2.17-.163 2.38-.52 2.721-.884z" transform="matrix(.69498 0 0 .69498 -84.155 -16.918)"/><path style="opacity:1;fill:none;stroke:#000;stroke-width:.359723;stroke-linecap:butt;stroke-linejoin:miter;stroke-miterlimit:4;stroke-dasharray:none;stroke-opacity:1" d="M128.832 38.447s-.697.837-.757 1.444c-.057.576.659 2.377 1.764 2.664.908.235 2.613-.953 2.613-.953s1.859 1.27 2.784.999c.845-.249 1.305-1.26 1.63-2.079.365-.913-.952-2.187-.952-2.187" transform="matrix(.69498 0 0 .69498 -84.155 -16.918)"/><path style="opacity:1;fill:#000;fill-opacity:1;stroke:none;stroke-width:.264583px;stroke-linecap:butt;stroke-linejoin:miter;stroke-opacity:1" d="M131.225 31.001c.186-.03.394.11.5.266a.98.98 0 0 1 .086.89c-.069.155-.241.304-.412.304-.187 0-.364-.169-.45-.335-.124-.241-.116-.562-.018-.816.051-.132.154-.286.294-.309zM127.27 31.207c.08.097.035.266-.024.377-.106.197-.38.244-.534.407-.204.216-.236.601-.499.74-.136.07-.36.11-.46-.005-.152-.172-.026-.48.082-.682.215-.4.6-.755 1.035-.886.13-.04.315-.055.4.049zM133.777 30.952c-.186-.03-.394.109-.5.265a.98.98 0 0 0-.087.89c.07.156.242.305.413.305.187 0 .363-.17.45-.335.124-.242.116-.562.018-.816-.051-.133-.154-.286-.294-.31zM137.469 31.406c-.065.108.006.269.08.37.135.179.414.184.59.322.234.183.323.559.604.656.145.05.372.056.455-.073.123-.193-.047-.48-.185-.663-.272-.363-.707-.656-1.156-.72-.133-.02-.32-.007-.388.108zM125.59 37.667c.207-.11.358-.417.29-.642-.1-.324-.542-.625-.868-.531-.206.059-.291.36-.288.575a.657.657 0 0 0 .267.494c.165.118.42.199.598.104zM125.539 34.306c-.138.346-.69.351-.909.654-.268.37.043 1.34-.413 1.306-.446-.035-.292-.889-.204-1.328.07-.357.257-.742.567-.933.253-.156.652-.25.888-.07.1.077.117.254.07.37zM126.426 37.63c-.173-.019-.388.147-.412.32-.024.176.143.406.32.428.184.023.413-.168.43-.353.015-.172-.165-.378-.338-.396zM124.502 40.103c.016-.208-.126-.5-.333-.53-.152-.021-.314.155-.344.306-.047.234.074.614.311.646.185.025.352-.236.366-.422zM139.687 37.966c-.208-.11-.359-.417-.29-.642.1-.324.542-.624.868-.531.206.059.29.36.287.575a.657.657 0 0 1-.267.494c-.164.118-.42.199-.598.104zM139.748 34.431c.112.356.662.401.858.719.24.388-.14 1.334.316 1.333.448-.002.357-.865.302-1.31-.045-.36-.202-.759-.497-.972-.241-.173-.633-.296-.881-.134-.105.069-.136.244-.098.364zM138.85 37.928c.173-.017.389.148.412.32.024.177-.142.408-.32.43-.183.022-.413-.169-.43-.354-.015-.172.165-.378.338-.396zM140.878 39.804c-.016-.208.127-.5.333-.53.152-.021.315.155.345.306.047.234-.075.615-.312.646-.184.025-.351-.236-.366-.422z" transform="matrix(.69498 0 0 .69498 -84.155 -16.918)"/><path style="fill:#fff;fill-opacity:.697581;stroke:#000;stroke-width:.065;stroke-linecap:butt;stroke-linejoin:miter;stroke-miterlimit:4;stroke-dasharray:none;stroke-opacity:1" d="M140.367 30.266c.188-.125.384-.123.562-.403-.056-.071-.136-.125-.336-.091.193-.179.526-.262.638-.569.388-1.03.032-2.951.988-3.884.004.775.157 1.727-.159 2.201.101-.015.212.001.357-.224.423 1.227-.255 1.78-.603 1.973.153.058.27-.04.504-.12.007.39-.165.496-.301.66M124.79 29.72c-.22-.002-.407-.076-.544-.265a1.342 1.342 0 0 0-.05-.653c-.094.052-.195.047-.273-.082.055-.16.223-.32.387-.4-.24-.06-.479-.303-.364-.777 0 0 .129.09.364.126-.706-.613-.15-1.567-.465-2.619 1.105.55.871 2.84 2.104 3.869a2.396 2.396 0 0 0-.651-.037c.091.204.239.341.509.33-.116.158-.213.32-.314.477.112.034.207.099.35.076" transform="matrix(.69498 0 0 .69498 -84.155 -16.918)"/><path style="display:inline;fill:#000;fill-opacity:1;stroke:none;stroke-width:.264583px;stroke-linecap:butt;stroke-linejoin:miter;stroke-opacity:1" d="M134.275 28.202c-.265-.134-.355-.319-.46-.162-.165.248-.114.628.006.9.07.157.338.492.509.492.186 0 .242-.339.332-.512.09-.173-.123-.583-.388-.718zM138.052 29.739c.095.214.538.618.717.618.178 0 .68.127.785-.077.106-.204.12-.968.045-1.16-.075-.194-.474-.31-.8-.436-.324-.127-.525-.037-.66.165s-.183.675-.087.89zM134.163 25.954c-.238.244-.101.325.02.597.07.157.334.29.505.29.186 0 .406-.004.491-.17.125-.242.427-.205.262-.554-.165-.35-1.041-.408-1.278-.163zM130.926 27.85c.265-.135.355-.32.46-.163.165.248.114.629-.006.9-.07.157-.338.492-.509.492-.187 0-.242-.339-.332-.512-.09-.173.123-.583.388-.718zM127.69 29.675c-.095.214-.538.619-.717.618-.179 0-.68.127-.786-.076-.105-.204-.12-.968-.044-1.161.074-.194.474-.309.8-.436.324-.126.525-.036.66.166s.182.675.087.89zM131.37 25.935c.236.245.1.326-.021.598-.07.156-.334.29-.505.29-.187 0-.406-.005-.491-.17-.125-.242-.427-.206-.262-.555.165-.35 1.041-.408 1.278-.163z" transform="matrix(.69498 0 0 .69498 -84.155 -16.918)"/></g></g></svg>